<svg width="105" height="29" viewBox="0 0 105 29" fill="none" xmlns="http://www.w3.org/2000/svg">
<path d="M8.30117 21.2106C2.76752 21.2232 0.000276614 21.2327 0.000276614 21.239C0.000276614 21.2471 4.62249 21.2501 13.8686 21.2477C14.2215 18.5615 13.9574 15.9226 13.366 13.3088C13.1037 12.1769 12.7746 11.0597 12.4769 9.93854C12.4374 9.9514 12.4 9.96636 12.3608 9.98341C11.9362 11.4288 11.5151 12.8748 11.0972 14.3217L10.8527 14.2834C10.5274 12.2496 10.3617 10.1692 9.38992 8.24607L8.51665 10.8299L8.22095 10.8727C8.17642 9.60412 8.03258 8.34179 7.7911 7.09951C7.7792 7.04208 7.76731 6.98225 7.75375 6.92243C7.62762 6.32148 7.46635 5.7298 7.27079 5.15099C6.97149 4.25061 6.57455 3.39182 6.08799 2.59284L5.99145 2.43939L5.97955 2.42025C5.40447 1.51239 4.71349 0.697567 3.92708 0C3.96857 0.726882 4.00785 1.45616 4.04741 2.18304C4.04741 2.31944 4.06318 2.45584 4.06898 2.59225C4.11905 3.44506 4.16746 4.29758 4.21476 5.15039C4.24242 5.63019 4.27202 6.1076 4.30162 6.58711C4.32126 6.92183 4.32928 7.24998 4.32319 7.57423C4.32402 7.5862 4.32402 7.59846 4.32319 7.61042C4.30992 8.76087 4.05432 9.89307 3.57606 10.9212C2.28621 13.6929 1.46992 15.4443 0.778667 17.6534C0.541333 18.412 0.20746 19.6357 0 21.239" fill="#FF6600"/>
<path d="M6.66945 26.7529C0.0522123 26.7529 0.145892 23.6702 0.00111375 21.2312C-0.143665 18.7922 13.8749 21.2312 13.8749 21.2312C13.697 22.9807 13.2867 26.7529 6.66945 26.7529Z" fill="#FF6600"/>
<path d="M30.5069 21.2106C24.9732 21.2232 22.206 21.2327 22.206 21.239C22.206 21.2471 26.8282 21.2501 36.0743 21.2477C36.4272 18.5615 36.1631 15.9226 35.5717 13.3088C35.3094 12.1769 34.9803 11.0597 34.6826 9.93854C34.6431 9.9514 34.6057 9.96636 34.5664 9.98341C34.1418 11.4288 33.7208 12.8748 33.3029 14.3217L33.0583 14.2834C32.733 12.2496 32.5674 10.1692 31.5956 8.24607L30.7223 10.8299L30.4266 10.8727C30.3821 9.60412 30.2383 8.34179 29.9968 7.09951C29.9849 7.04208 29.973 6.98225 29.9594 6.92243C29.8333 6.32148 29.672 5.7298 29.4765 5.15099C29.1772 4.25061 28.7802 3.39182 28.2937 2.59284L28.1971 2.43939L28.1852 2.42025C27.6102 1.51239 26.9192 0.697567 26.1328 0C26.1743 0.726882 26.2135 1.45616 26.2531 2.18304C26.2531 2.31944 26.2689 2.45584 26.2747 2.59225C26.3247 3.44506 26.3731 4.29758 26.4204 5.15039C26.4481 5.63019 26.4777 6.1076 26.5073 6.58711C26.5269 6.92183 26.535 7.24998 26.5289 7.57423C26.5297 7.5862 26.5297 7.59846 26.5289 7.61042C26.5156 8.76087 26.26 9.89307 25.7817 10.9212C24.4919 13.6929 23.6756 15.4443 22.9844 17.6534C22.747 18.412 22.4131 19.6357 22.2057 21.239" fill="#FF6600"/>
<path d="M28.8751 26.7529C22.2579 26.7529 22.3516 23.6702 22.2068 21.2312C22.062 18.7922 36.0806 21.2312 36.0806 21.2312C35.9027 22.9807 35.4924 26.7529 28.8751 26.7529Z" fill="#FF6600"/>
<path d="M52.7123 21.2106C47.1787 21.2232 44.4114 21.2327 44.4114 21.239C44.4114 21.2471 49.0336 21.2501 58.2797 21.2477C58.6327 18.5615 58.3685 15.9226 57.7771 13.3088C57.5149 12.1769 57.1857 11.0597 56.8881 9.93854C56.8485 9.9514 56.8112 9.96636 56.7719 9.98341C56.3473 11.4288 55.9263 12.8748 55.5083 14.3217L55.2638 14.2834C54.9385 12.2496 54.7728 10.1692 53.8011 8.24607L52.9278 10.8299L52.6321 10.8727C52.5876 9.60412 52.4437 8.34179 52.2022 7.09951C52.1903 7.04208 52.1784 6.98225 52.1649 6.92243C52.0388 6.32148 51.8775 5.7298 51.6819 5.15099C51.3826 4.25061 50.9857 3.39182 50.4991 2.59284L50.4026 2.43939L50.3907 2.42025C49.8156 1.51239 49.1246 0.697567 48.3382 0C48.3797 0.726882 48.419 1.45616 48.4585 2.18304C48.4585 2.31944 48.4743 2.45584 48.4801 2.59225C48.5302 3.44506 48.5786 4.29758 48.6259 5.15039C48.6536 5.63019 48.6832 6.1076 48.7127 6.58711C48.7324 6.92183 48.7404 7.24998 48.7343 7.57423C48.7352 7.5862 48.7352 7.59846 48.7343 7.61042C48.721 8.76087 48.4655 9.89307 47.9872 10.9212C46.6973 13.6929 45.8811 15.4443 45.1898 17.6534C44.9525 18.412 44.6186 19.6357 44.4111 21.239" fill="#FF6600"/>
<path d="M51.0806 26.7529C44.4633 26.7529 44.557 23.6702 44.4122 21.2312C44.2675 18.7922 58.286 21.2312 58.286 21.2312C58.1081 22.9807 57.6978 26.7529 51.0806 26.7529Z" fill="#FF6600"/>
<path d="M74.9187 21.2106C69.3851 21.2232 66.6178 21.2327 66.6178 21.239C66.6178 21.2471 71.24 21.2501 80.4861 21.2477C80.8391 18.5615 80.5749 15.9226 79.9835 13.3088C79.7213 12.1769 79.3921 11.0597 79.0945 9.93854C79.0549 9.9514 79.0176 9.96636 78.9783 9.98341C78.5537 11.4288 78.1327 12.8748 77.7147 14.3217L77.4702 14.2834C77.1449 12.2496 76.9792 10.1692 76.0075 8.24607L75.1342 10.8299L74.8385 10.8727C74.794 9.60412 74.6501 8.34179 74.4086 7.09951C74.3968 7.04208 74.3849 6.98225 74.3713 6.92243C74.2452 6.32148 74.0839 5.7298 73.8883 5.15099C73.589 4.25061 73.1921 3.39182 72.7055 2.59284L72.609 2.43939L72.5971 2.42025C72.022 1.51239 71.331 0.697567 70.5446 0C70.5861 0.726882 70.6254 1.45616 70.665 2.18304C70.665 2.31944 70.6807 2.45584 70.6865 2.59225C70.7366 3.44506 70.785 4.29758 70.8323 5.15039C70.86 5.63019 70.8896 6.1076 70.9192 6.58711C70.9388 6.92183 70.9468 7.24998 70.9407 7.57423C70.9416 7.5862 70.9416 7.59846 70.9407 7.61042C70.9275 8.76087 70.6719 9.89307 70.1936 10.9212C68.9038 13.6929 68.0875 15.4443 67.3962 17.6534C67.1589 18.412 66.825 19.6357 66.6176 21.239" fill="#FF6600"/>
<path d="M73.287 26.7529C66.6698 26.7529 66.7634 23.6702 66.6187 21.2312C66.4739 18.7922 80.4924 21.2312 80.4924 21.2312C80.3146 22.9807 79.9042 26.7529 73.287 26.7529Z" fill="#FF6600"/>
<path d="M97.1242 21.2106C91.5905 21.2232 88.8233 21.2327 88.8233 21.239C88.8233 21.2471 93.4455 21.2501 102.692 21.2477C103.045 18.5615 102.78 15.9226 102.189 13.3088C101.927 12.1769 101.598 11.0597 101.3 9.93854C101.26 9.9514 101.223 9.96636 101.184 9.98341C100.759 11.4288 100.338 12.8748 99.9202 14.3217L99.6757 14.2834C99.3504 12.2496 99.1847 10.1692 98.2129 8.24607L97.3397 10.8299L97.044 10.8727C96.9994 9.60412 96.8556 8.34179 96.6141 7.09951C96.6022 7.04208 96.5903 6.98225 96.5768 6.92243C96.4506 6.32148 96.2894 5.7298 96.0938 5.15099C95.7945 4.25061 95.3975 3.39182 94.911 2.59284L94.8144 2.43939L94.8026 2.42025C94.2275 1.51239 93.5365 0.697567 92.7501 0C92.7916 0.726882 92.8309 1.45616 92.8704 2.18304C92.8704 2.31944 92.8862 2.45584 92.892 2.59225C92.942 3.44506 92.9905 4.29758 93.0378 5.15039C93.0654 5.63019 93.095 6.1076 93.1246 6.58711C93.1443 6.92183 93.1523 7.24998 93.1462 7.57423C93.147 7.5862 93.147 7.59846 93.1462 7.61042C93.1329 8.76087 92.8773 9.89307 92.3991 10.9212C91.1092 13.6929 90.2929 15.4443 89.6017 17.6534C89.3643 18.412 89.0305 19.6357 88.823 21.239" fill="#FF6600"/>
<path d="M95.4924 26.7529C88.8752 26.7529 88.9689 23.6702 88.8241 21.2312C88.6793 18.7922 102.698 21.2312 102.698 21.2312C102.52 22.9807 102.11 26.7529 95.4924 26.7529Z" fill="#FF6600"/>
<rect opacity="0.47" x="99.2551" y="4.89288" width="4.89286" height="23.7653" fill="white"/>
</svg>
