<svg width="148" height="39" viewBox="0 0 148 39" fill="none" xmlns="http://www.w3.org/2000/svg">
<path d="M11.8761 30.3451C3.95937 30.3631 0.000395739 30.3768 0.000395739 30.3857C0.000395739 30.3973 6.61319 30.4016 19.8412 30.3982C20.3461 26.5552 19.9682 22.7798 19.1221 19.0404C18.747 17.421 18.276 15.8226 17.8502 14.2186C17.7936 14.237 17.7402 14.2584 17.684 14.2828C17.0765 16.3507 16.4742 18.4194 15.8763 20.4894L15.5264 20.4346C15.061 17.525 14.824 14.5486 13.4338 11.7973L12.1844 15.4939L11.7614 15.5551C11.6977 13.7402 11.4919 11.9342 11.1464 10.157C11.1294 10.0748 11.1124 9.98921 11.093 9.90362C10.9125 9.04387 10.6818 8.19738 10.402 7.3693C9.97381 6.08117 9.40593 4.85253 8.70982 3.70947L8.57171 3.48993L8.55469 3.46254C7.73195 2.16372 6.74339 0.99798 5.61831 0C5.67767 1.03992 5.73386 2.08326 5.79045 3.12318C5.79045 3.31833 5.81301 3.51347 5.82132 3.70862C5.89295 4.9287 5.9622 6.14836 6.02988 7.36844C6.06945 8.05488 6.11179 8.73789 6.15414 9.42389C6.18224 9.90277 6.19371 10.3722 6.18501 10.8361C6.18619 10.8532 6.18619 10.8708 6.18501 10.8879C6.16601 12.5338 5.80035 14.1536 5.11611 15.6245C3.27078 19.5898 2.10296 22.0955 1.11401 25.2559C0.774461 26.3412 0.296804 28.0919 0 30.3857" fill="white"/>
<path d="M9.5417 38.2744C0.074698 38.2744 0.208722 33.8641 0.00159339 30.3747C-0.205535 26.8854 19.8502 30.3747 19.8502 30.3747C19.5957 32.8776 19.0087 38.2744 9.5417 38.2744Z" fill="white"/>
<path d="M43.6449 30.3451C35.7282 30.3631 31.7692 30.3768 31.7692 30.3857C31.7692 30.3973 38.382 30.4016 51.61 30.3982C52.1149 26.5552 51.737 22.7798 50.8909 19.0404C50.5157 17.421 50.0448 15.8226 49.619 14.2186C49.5624 14.237 49.509 14.2584 49.4528 14.2828C48.8453 16.3507 48.243 18.4194 47.6451 20.4894L47.2952 20.4346C46.8298 17.525 46.5928 14.5486 45.2026 11.7973L43.9532 15.4939L43.5302 15.5551C43.4664 13.7402 43.2607 11.9342 42.9152 10.157C42.8982 10.0748 42.8812 9.98921 42.8618 9.90362C42.6813 9.04387 42.4506 8.19738 42.1708 7.3693C41.7426 6.08117 41.1747 4.85253 40.4786 3.70947L40.3405 3.48993L40.3235 3.46254C39.5007 2.16372 38.5122 0.99798 37.3871 0C37.4465 1.03992 37.5027 2.08326 37.5593 3.12318C37.5593 3.31833 37.5818 3.51347 37.5901 3.70862C37.6617 4.9287 37.731 6.14836 37.7987 7.36844C37.8382 8.05488 37.8806 8.73789 37.9229 9.42389C37.951 9.90277 37.9625 10.3722 37.9538 10.8361C37.955 10.8532 37.955 10.8708 37.9538 10.8879C37.9348 12.5338 37.5691 14.1536 36.8849 15.6245C35.0396 19.5898 33.8718 22.0955 32.8828 25.2559C32.5433 26.3412 32.0656 28.0919 31.7688 30.3857" fill="white"/>
<path d="M41.3105 38.2744C31.8435 38.2744 31.9775 33.8641 31.7704 30.3747C31.5633 26.8854 51.619 30.3747 51.619 30.3747C51.3645 32.8776 50.7775 38.2744 41.3105 38.2744Z" fill="white"/>
<path d="M75.4132 30.3451C67.4965 30.3631 63.5375 30.3768 63.5375 30.3857C63.5375 30.3973 70.1503 30.4016 83.3783 30.3982C83.8832 26.5552 83.5053 22.7798 82.6592 19.0404C82.2841 17.421 81.8131 15.8226 81.3873 14.2186C81.3307 14.237 81.2773 14.2584 81.2211 14.2828C80.6136 16.3507 80.0113 18.4194 79.4134 20.4894L79.0635 20.4346C78.5981 17.525 78.3611 14.5486 76.9709 11.7973L75.7215 15.4939L75.2985 15.5551C75.2348 13.7402 75.029 11.9342 74.6835 10.157C74.6665 10.0748 74.6495 9.98921 74.6301 9.90362C74.4496 9.04387 74.2189 8.19738 73.9391 7.3693C73.5109 6.08117 72.943 4.85253 72.2469 3.70947L72.1088 3.48993L72.0918 3.46254C71.2691 2.16372 70.2805 0.99798 69.1554 0C69.2148 1.03992 69.271 2.08326 69.3276 3.12318C69.3276 3.31833 69.3501 3.51347 69.3584 3.70862C69.4301 4.9287 69.4993 6.14836 69.567 7.36844C69.6066 8.05488 69.6489 8.73789 69.6912 9.42389C69.7193 9.90277 69.7308 10.3722 69.7221 10.8361C69.7233 10.8532 69.7233 10.8708 69.7221 10.8879C69.7031 12.5338 69.3375 14.1536 68.6532 15.6245C66.8079 19.5898 65.6401 22.0955 64.6511 25.2559C64.3116 26.3412 63.8339 28.0919 63.5371 30.3857" fill="white"/>
<path d="M73.0788 38.2744C63.6118 38.2744 63.7458 33.8641 63.5387 30.3747C63.3316 26.8854 83.3873 30.3747 83.3873 30.3747C83.1328 32.8776 82.5458 38.2744 73.0788 38.2744Z" fill="white"/>
<path d="M107.183 30.3451C99.2663 30.3631 95.3073 30.3768 95.3073 30.3857C95.3073 30.3973 101.92 30.4016 115.148 30.3982C115.653 26.5552 115.275 22.7798 114.429 19.0404C114.054 17.421 113.583 15.8226 113.157 14.2186C113.101 14.237 113.047 14.2584 112.991 14.2828C112.383 16.3507 111.781 18.4194 111.183 20.4894L110.833 20.4346C110.368 17.525 110.131 14.5486 108.741 11.7973L107.491 15.4939L107.068 15.5551C107.005 13.7402 106.799 11.9342 106.453 10.157C106.436 10.0748 106.419 9.98921 106.4 9.90362C106.219 9.04387 105.989 8.19738 105.709 7.3693C105.281 6.08117 104.713 4.85253 104.017 3.70947L103.879 3.48993L103.862 3.46254C103.039 2.16372 102.05 0.99798 100.925 0C100.985 1.03992 101.041 2.08326 101.097 3.12318C101.097 3.31833 101.12 3.51347 101.128 3.70862C101.2 4.9287 101.269 6.14836 101.337 7.36844C101.376 8.05488 101.419 8.73789 101.461 9.42389C101.489 9.90277 101.501 10.3722 101.492 10.8361C101.493 10.8532 101.493 10.8708 101.492 10.8879C101.473 12.5338 101.107 14.1536 100.423 15.6245C98.5777 19.5898 97.4098 22.0955 96.4209 25.2559C96.0813 26.3412 95.6037 28.0919 95.3069 30.3857" fill="white"/>
<path d="M104.849 38.2744C95.3816 38.2744 95.5156 33.8641 95.3085 30.3747C95.1013 26.8854 115.157 30.3747 115.157 30.3747C114.903 32.8776 114.316 38.2744 104.849 38.2744Z" fill="white"/>
<path d="M138.951 30.3451C131.035 30.3631 127.076 30.3768 127.076 30.3857C127.076 30.3973 133.688 30.4016 146.916 30.3982C147.421 26.5552 147.043 22.7798 146.197 19.0404C145.822 17.421 145.351 15.8226 144.925 14.2186C144.869 14.237 144.815 14.2584 144.759 14.2828C144.152 16.3507 143.549 18.4194 142.951 20.4894L142.602 20.4346C142.136 17.525 141.899 14.5486 140.509 11.7973L139.26 15.4939L138.837 15.5551C138.773 13.7402 138.567 11.9342 138.222 10.157C138.205 10.0748 138.188 9.98921 138.168 9.90362C137.988 9.04387 137.757 8.19738 137.477 7.3693C137.049 6.08117 136.481 4.85253 135.785 3.70947L135.647 3.48993L135.63 3.46254C134.807 2.16372 133.819 0.99798 132.694 0C132.753 1.03992 132.809 2.08326 132.866 3.12318C132.866 3.31833 132.888 3.51347 132.897 3.70862C132.968 4.9287 133.037 6.14836 133.105 7.36844C133.145 8.05488 133.187 8.73789 133.229 9.42389C133.257 9.90277 133.269 10.3722 133.26 10.8361C133.261 10.8532 133.261 10.8708 133.26 10.8879C133.241 12.5338 132.876 14.1536 132.191 15.6245C130.346 19.5898 129.178 22.0955 128.189 25.2559C127.85 26.3412 127.372 28.0919 127.075 30.3857" fill="white"/>
<path d="M136.617 38.2744C127.15 38.2744 127.284 33.8641 127.077 30.3747C126.87 26.8854 146.925 30.3747 146.925 30.3747C146.671 32.8776 146.084 38.2744 136.617 38.2744Z" fill="white"/>
</svg>
