<svg width="37" height="73" viewBox="0 0 37 73" fill="none" xmlns="http://www.w3.org/2000/svg">
<path d="M26.1406 35.7922C26.0138 33.8598 25.7783 32.2353 25.3736 31.3537C25.3736 31.3537 24.6128 33.0687 22.4448 35.0434C21.3035 26.8366 20.2044 27.0902 20.2044 27.0902L15.1076 37.6522L13.8515 26.0697C11.0556 29.8319 9.32845 34.3187 8.68229 39.5242C8.54944 39.8564 8.45282 40.1764 8.38035 40.4844L8.24146 40.5206C7.83082 40.5991 7.53491 40.8407 7.38998 41.1607L4.02031 45.6053L3.85122 45.0135C2.72196 41.209 2.98163 36.1364 4.11693 32.8453C5.25827 29.5481 9.8961 19.4088 10.9952 17.5489C12.0882 15.6889 10.4879 0 10.4879 0C10.4879 0 15.947 4.96997 17.4507 10.0366C18.9544 15.1092 18.8879 20.7193 19.3892 19.4511C19.8964 18.183 21.0921 14.6019 21.0921 14.6019C24.184 20.5985 23.5137 26.8185 24.2323 25.4658C24.9449 24.1131 26.7565 17.2952 26.7565 17.2952C26.7565 17.2952 28.6467 21.921 29.6854 28.6C30.2893 32.4588 29.933 36.3478 29.5284 38.9384L28.6105 36.6739C28.381 36.1787 27.753 35.3937 26.9256 35.5688L26.1406 35.7922Z" fill="white"/>
<path d="M35.9301 54.7482L28.6231 36.686C28.3936 36.1908 27.7656 35.4058 26.9382 35.5809L8.24803 40.5207C7.83738 40.5992 7.54148 40.8407 7.39655 41.1608L0.355264 50.4425C-0.478096 51.5355 0.246559 52.6104 1.5751 52.2541L2.45678 52.0186V63.6373C2.45678 63.8487 2.80703 64.4888 2.98215 64.6035L15.4826 72.6956C15.8811 72.9311 16.5816 73.1062 17.3365 72.9251L32.9892 68.6496C33.3817 68.5409 33.8406 67.943 33.8406 67.5384V56.6806L35.1571 56.3303C35.8878 56.1371 36.226 55.4305 35.9301 54.7482ZM14.7941 69.9479L4.25032 63.1603V50.213L8.00648 45.3155L13.8762 60.3039C13.8762 60.3039 14.0393 61.0527 14.2627 61.2037C14.4862 61.3547 14.7881 61.8317 14.7881 61.8317V69.9479H14.7941ZM16.4367 58.8727L10.0476 42.5195L26.6725 37.9843L33.279 54.4341L16.4367 58.8727Z" fill="white"/>
</svg>
