<svg width="27" height="20" viewBox="0 0 27 20" fill="none" xmlns="http://www.w3.org/2000/svg">
<rect x="3.5" y="0.5" width="21" height="19" rx="9.5" fill="white" stroke="#4B4B4D"/>
<path d="M16.6787 8.35298L16.0324 9.41193H9.4351L9.99192 8.35298H16.6787ZM15.4159 10.4062L14.7348 11.4801H9.09206L9.64888 10.4062H15.4159ZM18.379 5.64347L17.4493 7.125C17.3101 6.99905 17.1494 6.87642 16.9671 6.7571C16.7881 6.63778 16.5809 6.53835 16.3456 6.45881C16.1136 6.37926 15.8518 6.33949 15.5601 6.33949C15.0663 6.33949 14.6089 6.47041 14.1879 6.73224C13.767 6.99077 13.4057 7.38518 13.1041 7.91548C12.8058 8.44247 12.5887 9.11032 12.4529 9.91903C12.3203 10.7277 12.317 11.3956 12.4429 11.9226C12.5689 12.4496 12.7992 12.8407 13.134 13.0959C13.4687 13.3511 13.883 13.4787 14.3769 13.4787C14.6685 13.4787 14.9436 13.4406 15.2021 13.3643C15.4607 13.2881 15.6977 13.192 15.9131 13.076C16.1285 12.96 16.3174 12.844 16.4798 12.728L16.9323 14.2095C16.5279 14.5178 16.0821 14.7498 15.5949 14.9055C15.1077 15.0613 14.6089 15.1392 14.0985 15.1392C13.25 15.1392 12.5324 14.9321 11.9458 14.5178C11.3624 14.1001 10.9498 13.5019 10.7078 12.723C10.4659 11.9408 10.4344 11.0062 10.6134 9.91903C10.7923 8.8286 11.1304 7.89228 11.6276 7.11008C12.128 6.32789 12.7412 5.72798 13.4671 5.31037C14.1929 4.88944 14.9801 4.67898 15.8286 4.67898C16.3589 4.67898 16.8378 4.76349 17.2654 4.93253C17.6962 5.09825 18.0674 5.33523 18.379 5.64347Z" fill="#4B4B4D"/>
</svg>
