<svg width="37" height="20" viewBox="0 0 37 20" fill="none" xmlns="http://www.w3.org/2000/svg">
<rect x="2.5" y="0.5" width="33" height="19" rx="9.5" fill="white" stroke="#4B4B4D"/>
<path d="M16.9277 8.35298L16.2814 9.41193H9.68413L10.2409 8.35298H16.9277ZM15.665 10.4062L14.9838 11.4801H9.34109L9.8979 10.4062H15.665ZM18.628 5.64347L17.6983 7.125C17.5591 6.99905 17.3984 6.87642 17.2161 6.7571C17.0371 6.63778 16.83 6.53835 16.5946 6.45881C16.3626 6.37926 16.1008 6.33949 15.8091 6.33949C15.3153 6.33949 14.8579 6.47041 14.437 6.73224C14.016 6.99077 13.6548 7.38518 13.3532 7.91548C13.0549 8.44247 12.8378 9.11032 12.7019 9.91903C12.5693 10.7277 12.566 11.3956 12.6919 11.9226C12.8179 12.4496 13.0482 12.8407 13.383 13.0959C13.7177 13.3511 14.132 13.4787 14.6259 13.4787C14.9176 13.4787 15.1926 13.4406 15.4512 13.3643C15.7097 13.2881 15.9467 13.192 16.1621 13.076C16.3775 12.96 16.5665 12.844 16.7289 12.728L17.1813 14.2095C16.7769 14.5178 16.3311 14.7498 15.8439 14.9055C15.3567 15.0613 14.8579 15.1392 14.3475 15.1392C13.499 15.1392 12.7814 14.9321 12.1948 14.5178C11.6114 14.1001 11.1988 13.5019 10.9569 12.723C10.7149 11.9408 10.6834 11.0062 10.8624 9.91903C11.0414 8.8286 11.3794 7.89228 11.8766 7.11008C12.3771 6.32789 12.9902 5.72798 13.7161 5.31037C14.4419 4.88944 15.2291 4.67898 16.0776 4.67898C16.6079 4.67898 17.0868 4.76349 17.5144 4.93253C17.9453 5.09825 18.3165 5.33523 18.628 5.64347ZM26.4297 8.35298L25.7834 9.41193H19.1861L19.7429 8.35298H26.4297ZM25.1669 10.4062L24.4858 11.4801H18.843L19.3999 10.4062H25.1669ZM28.13 5.64347L27.2003 7.125C27.0611 6.99905 26.9003 6.87642 26.718 6.7571C26.5391 6.63778 26.3319 6.53835 26.0966 6.45881C25.8646 6.37926 25.6027 6.33949 25.3111 6.33949C24.8172 6.33949 24.3598 6.47041 23.9389 6.73224C23.518 6.99077 23.1567 7.38518 22.8551 7.91548C22.5568 8.44247 22.3397 9.11032 22.2038 9.91903C22.0713 10.7277 22.0679 11.3956 22.1939 11.9226C22.3198 12.4496 22.5502 12.8407 22.8849 13.0959C23.2197 13.3511 23.634 13.4787 24.1278 13.4787C24.4195 13.4787 24.6946 13.4406 24.9531 13.3643C25.2116 13.2881 25.4486 13.192 25.6641 13.076C25.8795 12.96 26.0684 12.844 26.2308 12.728L26.6832 14.2095C26.2789 14.5178 25.8331 14.7498 25.3459 14.9055C24.8587 15.0613 24.3598 15.1392 23.8494 15.1392C23.0009 15.1392 22.2834 14.9321 21.6967 14.5178C21.1134 14.1001 20.7008 13.5019 20.4588 12.723C20.2169 11.9408 20.1854 11.0062 20.3643 9.91903C20.5433 8.8286 20.8814 7.89228 21.3786 7.11008C21.879 6.32789 22.4922 5.72798 23.218 5.31037C23.9439 4.88944 24.7311 4.67898 25.5795 4.67898C26.1098 4.67898 26.5888 4.76349 27.0163 4.93253C27.4472 5.09825 27.8184 5.33523 28.13 5.64347Z" fill="#4B4B4D"/>
</svg>
